solid OpenSCAD_Model
  facet normal -0.996195 0 -0.0871557
    outer loop
      vertex -10.4379 -12.7 -26.4102
      vertex -14.8654 12.7 24.1965
      vertex -10.4379 12.7 -26.4102
    endloop
  endfacet
  facet normal -0.996195 -0 -0.0871557
    outer loop
      vertex -14.8654 12.7 24.1965
      vertex -10.4379 -12.7 -26.4102
      vertex -14.8654 -12.7 24.1965
    endloop
  endfacet
  facet normal -0.0871558 0 0.996195
    outer loop
      vertex -14.8654 12.7 24.1965
      vertex 10.4379 -12.7 26.4102
      vertex 10.4379 12.7 26.4102
    endloop
  endfacet
  facet normal -0.0871558 0 0.996195
    outer loop
      vertex 10.4379 -12.7 26.4102
      vertex -14.8654 12.7 24.1965
      vertex -14.8654 -12.7 24.1965
    endloop
  endfacet
  facet normal 0.996195 -0 0.0871557
    outer loop
      vertex 10.4379 -12.7 26.4102
      vertex 14.8654 12.7 -24.1965
      vertex 10.4379 12.7 26.4102
    endloop
  endfacet
  facet normal 0.996195 0 0.0871557
    outer loop
      vertex 14.8654 12.7 -24.1965
      vertex 10.4379 -12.7 26.4102
      vertex 14.8654 -12.7 -24.1965
    endloop
  endfacet
  facet normal 0 1 0
    outer loop
      vertex 14.8654 12.7 -24.1965
      vertex -14.8654 12.7 24.1965
      vertex 10.4379 12.7 26.4102
    endloop
  endfacet
  facet normal 0 1 0
    outer loop
      vertex -14.8654 12.7 24.1965
      vertex 14.8654 12.7 -24.1965
      vertex -10.4379 12.7 -26.4102
    endloop
  endfacet
  facet normal 0.0871556 0 -0.996195
    outer loop
      vertex 14.8654 -12.7 -24.1965
      vertex 11.4777 -10.16 -24.4929
      vertex 14.8654 12.7 -24.1965
    endloop
  endfacet
  facet normal 0.0871558 2.32531e-007 -0.996195
    outer loop
      vertex -10.4379 -12.7 -26.4102
      vertex 11.4777 -10.16 -24.4929
      vertex 14.8654 -12.7 -24.1965
    endloop
  endfacet
  facet normal 0.0871557 0 -0.996195
    outer loop
      vertex -9.07729 -10.16 -26.2912
      vertex -10.4379 -12.7 -26.4102
      vertex -9.07729 10.16 -26.2912
    endloop
  endfacet
  facet normal 0.0871558 -3.26211e-008 -0.996195
    outer loop
      vertex 11.4777 -10.16 -24.4929
      vertex -10.4379 -12.7 -26.4102
      vertex -9.07729 -10.16 -26.2912
    endloop
  endfacet
  facet normal 0.0871556 0 -0.996195
    outer loop
      vertex 11.4777 10.16 -24.4929
      vertex 14.8654 12.7 -24.1965
      vertex 11.4777 -10.16 -24.4929
    endloop
  endfacet
  facet normal 0.0871558 3.26211e-008 -0.996195
    outer loop
      vertex -10.4379 12.7 -26.4102
      vertex 11.4777 10.16 -24.4929
      vertex -9.07729 10.16 -26.2912
    endloop
  endfacet
  facet normal 0.0871558 -2.32531e-007 -0.996195
    outer loop
      vertex 11.4777 10.16 -24.4929
      vertex -10.4379 12.7 -26.4102
      vertex 14.8654 12.7 -24.1965
    endloop
  endfacet
  facet normal 0.0871557 0 -0.996195
    outer loop
      vertex -10.4379 12.7 -26.4102
      vertex -9.07729 10.16 -26.2912
      vertex -10.4379 -12.7 -26.4102
    endloop
  endfacet
  facet normal 0 -1 0
    outer loop
      vertex -14.8654 -12.7 24.1965
      vertex 14.8654 -12.7 -24.1965
      vertex 10.4379 -12.7 26.4102
    endloop
  endfacet
  facet normal -0 -1 0
    outer loop
      vertex 14.8654 -12.7 -24.1965
      vertex -14.8654 -12.7 24.1965
      vertex -10.4379 -12.7 -26.4102
    endloop
  endfacet
  facet normal -0.996195 0 0.0871557
    outer loop
      vertex -11.7817 -10.16 -57.2022
      vertex -9.07729 10.16 -26.2912
      vertex -11.7817 10.16 -57.2022
    endloop
  endfacet
  facet normal -0.996195 0 0.0871557
    outer loop
      vertex -9.07729 10.16 -26.2912
      vertex -11.7817 -10.16 -57.2022
      vertex -9.07729 -10.16 -26.2912
    endloop
  endfacet
  facet normal 0.996195 0 -0.0871558
    outer loop
      vertex 11.4777 -10.16 -24.4929
      vertex 8.61596 10.16 -57.2022
      vertex 11.4777 10.16 -24.4929
    endloop
  endfacet
  facet normal 0.996195 0 -0.0871558
    outer loop
      vertex 8.61596 10.16 -57.2022
      vertex 11.4777 -10.16 -24.4929
      vertex 8.61596 -10.16 -57.2022
    endloop
  endfacet
  facet normal 0 -1 0
    outer loop
      vertex 8.61596 -10.16 -57.2022
      vertex -9.07729 -10.16 -26.2912
      vertex -11.7817 -10.16 -57.2022
    endloop
  endfacet
  facet normal 0 -1 0
    outer loop
      vertex -9.07729 -10.16 -26.2912
      vertex 8.61596 -10.16 -57.2022
      vertex 11.4777 -10.16 -24.4929
    endloop
  endfacet
  facet normal 0 1 -0
    outer loop
      vertex 8.61596 10.16 -57.2022
      vertex -9.07729 10.16 -26.2912
      vertex 11.4777 10.16 -24.4929
    endloop
  endfacet
  facet normal 0 1 0
    outer loop
      vertex -9.07729 10.16 -26.2912
      vertex 8.61596 10.16 -57.2022
      vertex -11.7817 10.16 -57.2022
    endloop
  endfacet
  facet normal -1 0 0
    outer loop
      vertex -15.875 -12.7 -63.5522
      vertex -15.875 12.7 -57.2022
      vertex -15.875 12.7 -63.5522
    endloop
  endfacet
  facet normal -1 -0 0
    outer loop
      vertex -15.875 12.7 -57.2022
      vertex -15.875 -12.7 -63.5522
      vertex -15.875 -12.7 -57.2022
    endloop
  endfacet
  facet normal 0 0 1
    outer loop
      vertex 22.225 12.7 -57.2022
      vertex 8.61596 10.16 -57.2022
      vertex 22.225 -12.7 -57.2022
    endloop
  endfacet
  facet normal -0 0 1
    outer loop
      vertex -15.875 12.7 -57.2022
      vertex 8.61596 10.16 -57.2022
      vertex 22.225 12.7 -57.2022
    endloop
  endfacet
  facet normal 0 0 1
    outer loop
      vertex -11.7817 10.16 -57.2022
      vertex -15.875 12.7 -57.2022
      vertex -11.7817 -10.16 -57.2022
    endloop
  endfacet
  facet normal 0 0 1
    outer loop
      vertex 8.61596 10.16 -57.2022
      vertex -15.875 12.7 -57.2022
      vertex -11.7817 10.16 -57.2022
    endloop
  endfacet
  facet normal -0 0 1
    outer loop
      vertex 8.61596 -10.16 -57.2022
      vertex 22.225 -12.7 -57.2022
      vertex 8.61596 10.16 -57.2022
    endloop
  endfacet
  facet normal 0 0 1
    outer loop
      vertex -15.875 -12.7 -57.2022
      vertex 8.61596 -10.16 -57.2022
      vertex -11.7817 -10.16 -57.2022
    endloop
  endfacet
  facet normal 0 0 1
    outer loop
      vertex 8.61596 -10.16 -57.2022
      vertex -15.875 -12.7 -57.2022
      vertex 22.225 -12.7 -57.2022
    endloop
  endfacet
  facet normal 0 0 1
    outer loop
      vertex -15.875 -12.7 -57.2022
      vertex -11.7817 -10.16 -57.2022
      vertex -15.875 12.7 -57.2022
    endloop
  endfacet
  facet normal 1 -0 0
    outer loop
      vertex 22.225 -12.7 -57.2022
      vertex 22.225 12.7 -63.5522
      vertex 22.225 12.7 -57.2022
    endloop
  endfacet
  facet normal 1 0 0
    outer loop
      vertex 22.225 12.7 -63.5522
      vertex 22.225 -12.7 -57.2022
      vertex 22.225 -12.7 -63.5522
    endloop
  endfacet
  facet normal 0 1 -0
    outer loop
      vertex 22.225 12.7 -63.5522
      vertex -15.875 12.7 -57.2022
      vertex 22.225 12.7 -57.2022
    endloop
  endfacet
  facet normal 0 1 0
    outer loop
      vertex -15.875 12.7 -57.2022
      vertex 22.225 12.7 -63.5522
      vertex -15.875 12.7 -63.5522
    endloop
  endfacet
  facet normal 0 0 -1
    outer loop
      vertex -15.875 -12.7 -63.5522
      vertex 22.225 12.7 -63.5522
      vertex 22.225 -12.7 -63.5522
    endloop
  endfacet
  facet normal -0 0 -1
    outer loop
      vertex 22.225 12.7 -63.5522
      vertex -15.875 -12.7 -63.5522
      vertex -15.875 12.7 -63.5522
    endloop
  endfacet
  facet normal 0 -1 0
    outer loop
      vertex -15.875 -12.7 -63.5522
      vertex 22.225 -12.7 -57.2022
      vertex -15.875 -12.7 -57.2022
    endloop
  endfacet
  facet normal 0 -1 -0
    outer loop
      vertex 22.225 -12.7 -57.2022
      vertex -15.875 -12.7 -63.5522
      vertex 22.225 -12.7 -63.5522
    endloop
  endfacet
endsolid OpenSCAD_Model
